<?xml version="1.0" standalone="no"?>
<!DOCTYPE svg PUBLIC "-//W3C//DTD SVG 20010904//EN"
 "http://www.w3.org/TR/2001/REC-SVG-20010904/DTD/svg10.dtd">
<svg version="1.0" xmlns="http://www.w3.org/2000/svg"
 width="600.000000pt" height="600.000000pt" viewBox="0 0 600.000000 600.000000"
 preserveAspectRatio="xMidYMid meet">
<metadata>
Created by potrace 1.14, written by Peter Selinger 2001-2017
</metadata>
<g transform="translate(0.000000,600.000000) scale(0.100000,-0.100000)"
fill="#000000" stroke="none">
<path d="M2799 5996 c-2 -2 -38 -7 -79 -10 -77 -7 -123 -12 -175 -22 -16 -3
-46 -7 -65 -10 -137 -18 -557 -140 -617 -180 -12 -8 -27 -14 -33 -14 -17 0
-199 -88 -295 -143 -391 -222 -711 -508 -970 -866 -72 -101 -192 -294 -216
-348 -8 -18 -17 -33 -21 -33 -5 0 -7 -3 -6 -7 1 -5 -14 -42 -34 -83 -80 -167
-159 -388 -199 -555 -11 -49 -23 -99 -26 -110 -2 -11 -6 -33 -9 -50 -2 -16 -8
-52 -14 -80 -5 -27 -12 -70 -15 -95 -2 -25 -8 -74 -12 -110 -15 -131 -6 -641
12 -670 2 -4 6 -26 9 -51 6 -43 20 -128 31 -180 2 -14 14 -61 25 -105 12 -43
22 -86 24 -95 11 -42 80 -245 87 -254 5 -5 9 -15 9 -22 0 -15 20 -60 92 -213
204 -428 525 -812 933 -1117 292 -218 685 -401 1047 -487 291 -69 437 -85 753
-81 143 1 271 5 285 8 14 3 48 8 75 12 155 19 392 73 550 126 331 111 660 290
935 509 105 84 329 301 406 395 63 76 212 277 226 305 7 14 16 27 19 30 22 20
177 308 209 389 10 27 28 68 39 92 37 80 121 341 135 419 2 14 5 25 6 25 2 0
4 9 24 115 9 47 19 103 22 125 3 22 7 51 10 65 26 164 26 647 -1 775 -3 11 -6
34 -9 50 -14 98 -21 132 -47 245 -98 411 -269 775 -533 1128 -38 50 -73 92
-78 92 -4 0 -8 4 -8 9 0 13 -60 79 -180 200 -129 129 -150 148 -276 245 -54
42 -110 85 -124 96 -14 11 -30 20 -37 20 -6 0 -13 3 -15 8 -13 29 -266 169
-503 277 -101 46 -330 120 -475 154 -129 30 -132 30 -280 51 -41 6 -88 13
-105 16 -34 6 -500 15 -506 10z"/>
</g>
</svg>
